<svg width="100" height="100" viewBox="0 0 100 100" fill="none" xmlns="http://www.w3.org/2000/svg">
<path d="M53.4649 0.0575409C53.4262 0.0809784 53.3971 0.791916 53.3971 1.63567C53.3875 3.33879 53.3294 3.5966 52.7195 4.40129C52.371 4.87004 52.2064 5.02629 49.2248 7.70598C45.3236 11.2294 42.4968 13.9404 40.522 16.0575C36.3981 20.4872 33.3294 23.3154 28.2858 27.3857C24.9654 30.0654 22.7001 31.745 20.2897 33.3232C19.5733 33.7997 18.3826 34.5966 17.6469 35.1044C16.9112 35.6044 16.1754 36.0732 16.0109 36.1435C15.7301 36.2607 15.5946 36.2607 14.249 36.1357C8.35357 35.6044 6.26258 35.3622 3.87148 34.9638C3.67787 34.9247 3.54234 34.9482 3.4649 35.0185C3.37777 35.1122 3.57138 35.245 4.52976 35.745C6.22385 36.6279 7.73402 37.1044 8.82792 37.1122C8.99249 37.1122 9.19578 37.1669 9.26354 37.245C9.34099 37.3154 9.82501 37.6435 10.3381 37.9872C10.8512 38.3232 11.2965 38.6279 11.3255 38.6669C11.3545 38.706 11.1222 38.9716 10.7931 39.2607C10.4736 39.5497 10.2316 39.7997 10.251 39.8232C10.28 39.8388 10.6091 39.7294 10.9867 39.581C11.3642 39.4247 11.8095 39.2997 11.9935 39.2997C12.3226 39.2997 12.2451 39.2607 15.8173 41.456C17.2113 42.3154 17.6372 42.4638 18.6924 42.456C19.5249 42.4482 20.309 42.2763 22.5549 41.5888C23.1842 41.3935 23.7263 41.2685 23.765 41.3075C24.9847 42.706 25.7979 43.7997 26.6014 45.12C28.3729 48.0419 28.5665 50.0654 27.1629 51.1279C26.9015 51.3232 26.5336 51.5419 26.3497 51.62C26.0593 51.7294 25.4397 52.3154 25.5365 52.3857C25.5559 52.3935 26.1561 52.1122 26.8821 51.7607C27.6082 51.4091 28.5472 51.0029 28.9634 50.8544L29.7282 50.5888L32.1483 50.5966C36.6788 50.6122 40.5123 51.1122 44.4717 52.1982C45.885 52.5888 48.2277 53.4013 48.3245 53.5341C48.3633 53.5732 48.2568 53.7216 48.0922 53.8544C47.6372 54.245 45.9722 55.9638 45.0138 57.0341C41.7321 60.6904 39.1667 64.3622 37.4726 67.8154C36.6014 69.5888 35.0428 71.3935 32.8744 73.1279C30.5317 75.0029 27.8115 76.3075 25.2074 76.7919C23.4068 77.1357 20.7834 77.1357 18.7408 76.7997C15.401 76.2529 12.4484 74.9013 10.2897 72.9325C6.75628 69.7138 4.91698 64.7841 4.87826 58.4638L4.86858 56.6825L5.26548 55.4716C6.29162 52.2841 7.56945 49.8075 9.1861 47.8466C9.95086 46.9169 11.2771 45.745 12.1967 45.1825C12.826 44.8075 14.0264 44.2997 14.3071 44.2997C14.5298 44.2997 14.675 44.0654 14.675 43.6904C14.675 43.081 14.1522 43.0029 12.7195 43.3857C5.48813 45.3388 1.15125 51.6591 0.0573485 61.8154C-0.0684986 62.9169 -0.000734763 63.7294 0.396167 65.9872C1.56751 72.5732 4.30711 77.6279 8.62463 81.1357C12.0225 83.9013 16.3013 85.5966 21.6159 86.2997C23.6101 86.5575 27.9083 86.5341 29.7766 86.245C30.5414 86.1279 33.0293 85.4404 34.0651 85.0654C38.7795 83.3544 43.2713 80.4638 47.3468 76.5263C48.189 75.7216 49.7669 74.0575 50.1445 73.5732C50.2413 73.456 50.3962 73.3622 50.4833 73.3622C50.5704 73.3622 51.0738 73.5654 51.6062 73.8075L52.5743 74.2607L53.0002 74.9325L53.4359 75.6044L52.9906 76.0185C52.4 76.5654 52.0806 77.0497 51.8386 77.7919C51.6643 78.3075 51.6256 78.6591 51.6062 80.0029C51.5869 81.6435 51.5094 82.12 51.1706 82.6591C50.8899 83.0966 50.5123 83.3466 49.9412 83.4872C48.4988 83.831 48.2761 84.4325 49.0506 85.9091C49.8347 87.4169 50.0864 88.4091 50.1542 90.3622C50.2122 92.0341 50.4349 93.1591 50.7543 93.37C50.8415 93.4325 50.8802 93.6513 50.8802 94.0263C50.8802 94.6591 51.0641 95.2529 51.3449 95.5029C51.5385 95.6747 51.8482 96.5497 51.8482 96.9325C51.8482 97.0497 51.887 97.1982 51.9354 97.2607C52.0031 97.3466 52.0515 97.2919 52.129 97.0654C52.2742 96.62 52.4291 95.8075 52.4484 95.331L52.4775 94.9169L53.1358 95.331C53.978 95.87 54.5201 96.5575 54.3652 96.9013C54.1909 97.3154 54.249 97.8154 54.5104 98.1747C54.7137 98.4482 54.7427 98.5654 54.6943 98.8857C54.6556 99.0888 54.5394 99.4091 54.433 99.5888C54.2103 99.9638 54.2684 100.097 54.5588 99.8857C54.9751 99.581 55.2461 98.9247 55.6721 97.2529C56.1754 95.2763 56.1948 95.3857 54.9944 94.4169C53.6779 93.3544 53.4939 93.0966 53.1454 91.8779C53.0196 91.4247 53.0002 90.9247 53.0293 89.0107L53.0583 86.6825L53.5327 85.745C54.0651 84.6747 54.8105 83.4794 55.43 82.7294L55.8463 82.206L56.34 82.3232C56.9886 82.4716 58.6924 83.1279 59.4862 83.5341C59.8347 83.706 60.5704 84.1279 61.1125 84.4638C62.0709 85.0654 62.1193 85.081 62.6324 85.081C62.9325 85.081 63.4843 85.0341 63.8715 84.9872C64.4233 84.9091 64.5685 84.9091 64.6072 84.9872C64.6556 85.1122 65.1396 85.3154 65.3816 85.3154C65.4784 85.3154 65.643 85.3857 65.7398 85.4716C65.9818 85.6904 66.5627 85.9716 66.6304 85.9091C66.7272 85.8388 66.4562 85.2529 66.1561 84.87C66.0109 84.6825 65.885 84.4794 65.885 84.4169C65.885 84.3544 65.7785 84.245 65.643 84.1747C65.5075 84.1044 65.401 84.0107 65.401 83.9716C65.401 83.8622 66.1948 82.9716 66.4755 82.7685C66.6014 82.6747 66.8628 82.581 67.0467 82.5575C67.3371 82.5263 67.4339 82.5575 67.705 82.7841C67.947 82.9872 68.1019 83.0497 68.3632 83.0497C68.6633 83.0497 68.8086 83.1279 69.3797 83.5732C69.9896 84.0497 70.0477 84.0732 70.0477 83.8935C70.0477 83.3779 69.5636 82.6904 68.6343 81.8779C68.3148 81.6044 68.1503 81.4091 68.2374 81.4091C68.3148 81.4091 68.431 81.3544 68.4988 81.2919C68.6053 81.1904 68.6537 81.206 68.857 81.4482C69.1764 81.831 69.37 81.8935 70.0961 81.831C70.7059 81.7763 70.7447 81.7841 71.0254 82.0029C71.19 82.1279 71.432 82.3779 71.5675 82.5654C71.9063 83.0263 72.0515 82.8779 71.7902 82.331C71.4804 81.6513 70.948 81.0966 70.2413 80.7294C69.9025 80.5419 69.5346 80.3075 69.4184 80.1982C69.2345 80.0029 69.1667 79.995 68.2471 79.9794L67.2597 79.9638L66.766 80.3388C66.3981 80.62 66.2142 80.706 66.098 80.6591C66.0109 80.6279 65.5656 80.5732 65.1203 80.5419C64.675 80.5029 64.0941 80.4169 63.8424 80.3544C63.5811 80.2841 63.1067 80.1982 62.7873 80.1591C62.1096 80.081 59.5056 79.0888 58.886 78.6747L58.5181 78.4247L58.9731 77.745C59.6314 76.7607 60.5704 75.62 61.1609 75.1044C61.4513 74.8544 61.887 74.3857 62.1387 74.0575C62.7776 73.2216 62.7679 73.0966 61.9063 71.8779C59.5733 68.5575 59.2151 67.5966 59.3216 64.831L59.3507 63.9247L60.8705 62.6747L62.3807 61.4247L63.5714 61.2997C65.5946 61.081 67.7147 60.7841 68.3729 60.62L69.0022 60.4638L70.8124 61.4013C73.2229 62.6435 74.7524 63.3857 75.7011 63.7685C76.4078 64.0575 76.553 64.0888 77.2016 64.0888C77.8889 64.0888 77.9179 64.0966 78.0922 64.331C78.189 64.4638 78.3052 64.6982 78.3342 64.8466C78.3632 64.995 78.4988 65.206 78.6343 65.3154C78.7602 65.4247 79.0506 65.7529 79.2732 66.0497C79.4959 66.3466 79.7379 66.6044 79.8056 66.6279C80.0961 66.706 79.7863 65.1357 79.3507 64.3622C79.1861 64.0732 79.0506 63.8154 79.0506 63.7919C79.0506 63.7685 79.1958 63.7529 79.37 63.7529C79.796 63.7529 80.7059 63.5575 81.1706 63.3622L81.5481 63.2138L81.6062 63.4482C81.6353 63.5732 81.8289 63.8154 82.0322 63.9716C82.3032 64.1825 82.4484 64.3935 82.5452 64.6747C82.6904 65.1591 82.855 65.1591 82.9325 64.6825L82.9809 64.3388L83.1067 64.5732C83.1745 64.6982 83.2519 65.0654 83.281 65.37C83.31 65.6825 83.3778 65.9404 83.4165 65.9404C83.7553 65.9404 83.8037 64.5107 83.5036 63.6044C83.3003 62.9794 83.2422 62.3075 83.4068 62.3857C83.4649 62.4091 83.5036 62.5341 83.5036 62.6591C83.5036 63.0029 83.5907 63.1122 84.0264 63.3544C84.4523 63.5966 84.6653 64.0029 84.6653 64.5732C84.6653 64.8544 84.7911 64.9404 84.8976 64.7216C84.9267 64.6513 84.9557 64.331 84.9557 64.0029C84.9557 63.5107 84.8879 63.245 84.5878 62.5419L84.22 61.6825L83.5423 61.3935C83.1745 61.2294 82.8066 61.0966 82.7195 61.0966C82.642 61.0966 82.4678 61.1825 82.3419 61.2919C82.1774 61.4325 82.0128 61.4872 81.7611 61.4872C81.5675 61.4872 80.9576 61.5419 80.3962 61.6122C79.2539 61.7529 77.2403 61.6982 76.6014 61.5185C76.1077 61.3779 75.5365 61.0107 75.0622 60.5263C74.7814 60.2294 74.7137 60.12 74.8105 60.0732C75.0428 59.956 75.43 60.0029 75.9044 60.206C76.5143 60.4638 78.1793 60.745 78.1793 60.5888C78.1793 60.5575 78.0922 60.4091 77.976 60.2685C77.7631 59.9794 76.1174 58.9872 75.8657 58.9872C75.7785 58.9872 75.9044 58.831 76.2142 58.5732C76.4852 58.3544 76.7756 58.0497 76.8724 57.9091C77.0273 57.6591 77.0467 57.6513 77.4339 57.706C77.7437 57.745 77.9373 57.8388 78.2374 58.1044C78.5181 58.3466 78.7117 58.4482 78.8666 58.4404C79.2829 58.4091 79.3507 58.4404 79.9315 58.8857C80.4833 59.3075 80.5026 59.3154 80.5026 59.1122C80.5026 58.831 80.0089 58.0654 79.5055 57.5654C79.2732 57.331 79.0506 57.0575 79.0215 56.956C78.9828 56.8466 78.8086 56.5732 78.6149 56.3466C78.431 56.1122 78.2761 55.9091 78.2761 55.8857C78.2761 55.87 78.3729 55.8622 78.4891 55.8779C78.6149 55.8935 78.7795 56.0263 78.9054 56.206C79.1667 56.5888 79.4862 56.7294 79.9315 56.6747C80.4252 56.62 80.8318 56.9013 81.0544 57.4716C81.1416 57.706 81.248 57.8935 81.2964 57.8935C81.4223 57.8935 81.3836 57.245 81.2287 56.8232C81.1319 56.5575 80.9092 56.2763 80.5704 55.9716C80.2994 55.7138 79.9024 55.3232 79.6992 55.1044C79.2829 54.6435 79.099 54.581 77.8695 54.5029C77.1725 54.456 77.1241 54.4638 76.9499 54.6357C76.7853 54.8075 76.7176 54.8232 76.2238 54.7841C75.7301 54.7529 75.6333 54.7763 75.372 54.9482C75.2171 55.0575 74.9847 55.1747 74.8686 55.1982C74.7427 55.2294 74.4329 55.4325 74.1619 55.6591C73.5327 56.1825 72.7485 56.495 71.9644 56.5419L71.3545 56.581L70.6575 55.8466C70.28 55.4482 69.8347 55.0185 69.6798 54.9013C69.4184 54.6982 69.4087 54.6669 69.5056 54.3544C69.5636 54.1591 69.825 53.8075 70.1057 53.5185C71.1803 52.4325 71.645 51.5575 71.8386 50.2919C71.916 49.8075 72.0225 49.2529 72.0709 49.0654C72.129 48.87 72.1774 48.5497 72.1774 48.3544C72.1774 48.0575 72.2645 47.8779 72.6905 47.3388C75.0138 44.3466 78.218 42.0654 80.8415 41.5263C82.0806 41.2763 83.4649 41.4169 84.6556 41.9169C86.2045 42.5732 87.734 44.1357 87.2693 44.581C87.1629 44.6825 87.008 44.6904 86.34 44.6513L85.5365 44.5966V44.8075C85.5365 44.9247 85.7398 45.4247 85.9818 45.9247C86.4368 46.8466 86.8531 48.0263 86.7563 48.1044C86.6788 48.1669 86.0399 47.831 85.8753 47.6357L85.7301 47.4716V47.6591C85.7398 47.9482 86.0496 48.4638 86.4562 48.8232C86.8531 49.1747 86.8821 49.245 87.1435 50.7997C87.2693 51.5029 87.3177 52.3232 87.3177 53.87L87.3274 55.9794L87.0176 56.5185C86.8434 56.8075 86.6982 57.0966 86.6982 57.1513C86.6982 57.2138 86.8724 57.2763 87.1145 57.3075C87.6372 57.3779 88.0051 57.5341 88.5278 57.9013C89.157 58.3544 89.4087 58.3232 89.854 57.7372C90.0477 57.4794 90.2509 57.2685 90.2994 57.2685C90.3478 57.2685 90.3671 57.1982 90.3284 57.1122C90.28 56.995 90.3284 56.9482 90.5317 56.9091L90.7931 56.8544L90.5704 56.7216C90.4058 56.62 90.3671 56.5419 90.4058 56.3935C90.4736 56.1904 90.7059 56.0966 91.1319 56.0966C91.432 56.0966 91.4029 56.0185 90.9867 55.7372C90.6963 55.5341 90.6479 55.4638 90.7059 55.2919C90.764 55.0966 90.8124 55.081 91.2287 55.081H91.6837L91.3739 54.8779C90.8899 54.581 90.9479 54.2138 91.4901 54.1122L91.7805 54.0497L91.5578 53.9169C91.3836 53.8154 91.3448 53.7372 91.3933 53.581C91.4901 53.2685 91.703 53.2529 91.8192 53.5419C92.0612 54.1435 92.5162 55.8075 92.6227 56.4482C92.7388 57.2294 92.8744 57.4404 93.097 57.2216C93.3874 56.9404 93.2906 55.5575 92.8357 53.5185L92.7776 53.245L93.3681 53.2685C93.8521 53.2919 93.978 53.331 94.0651 53.4638C94.1812 53.6357 94.1522 53.6669 93.5036 54.0497C93.1164 54.2763 93.3003 54.3779 94.0651 54.3779C94.6556 54.3779 94.7427 54.3935 94.7137 54.5107C94.6943 54.5888 94.5394 54.7216 94.3749 54.8154C94.0264 55.0029 94.0554 55.081 94.4426 55.081C94.917 55.081 95.3139 55.1747 95.3139 55.2919C95.3139 55.3544 95.2074 55.4872 95.0719 55.5888L94.8395 55.7841H95.2364C95.5752 55.7841 95.6236 55.7997 95.5752 55.9404C95.5365 56.0575 95.5752 56.0966 95.7205 56.0966C95.8269 56.0966 96.1077 56.2529 96.3497 56.4482C96.582 56.6435 96.8628 56.7997 96.9596 56.7997C97.1919 56.7997 97.9373 56.0341 98.3245 55.3935C98.7892 54.6435 98.915 53.1747 98.5762 52.5029C98.5278 52.3935 98.4504 51.8935 98.4116 51.3857C98.3632 50.8388 98.2858 50.4247 98.218 50.3544C98.1115 50.2529 98.1309 50.1982 98.3439 50.0185C98.7021 49.7138 98.7989 49.4482 98.8666 48.6044C98.9054 47.995 99.0022 47.6435 99.3894 46.7216C99.6508 46.0966 99.8928 45.3622 99.9218 45.081C99.9896 44.5185 99.8734 44.5029 99.6701 45.0419C99.5152 45.456 99.1861 45.9247 99.0215 45.9716C98.9441 46.0029 98.7795 45.831 98.5665 45.4872C98.0244 44.6044 97.7921 43.8857 97.4823 42.1122C97.2113 40.5497 96.7079 39.2372 95.9915 38.2216C95.7108 37.8388 95.43 37.7216 95.5559 38.0497C95.6527 38.2841 95.6333 39.9325 95.5365 40.0107C95.4784 40.0575 95.3332 39.9638 95.1493 39.7529C94.7814 39.331 93.4455 38.2763 92.5549 37.6904C91.461 36.9794 89.4378 35.831 88.402 35.3544C87.8695 35.1044 87.008 34.6825 86.4755 34.4091C85.3429 33.831 85.0138 33.7294 83.4068 33.5185C82.7388 33.4325 81.8579 33.2997 81.4513 33.2294C80.8221 33.1279 80.5704 33.12 79.825 33.1982C78.857 33.2997 77.1338 33.6357 75.885 33.9794C75.4397 34.0966 75.0912 34.1591 75.1106 34.1122C75.1396 34.0654 75.5656 33.5185 76.069 32.8935C76.5723 32.2685 77.2403 31.4247 77.5598 31.0107L78.1309 30.2607L78.8473 30.206C79.2442 30.1825 79.8734 30.1591 80.2509 30.1591C80.9576 30.1591 81.1416 30.1044 81.6643 29.7294C81.8482 29.5966 82.0709 29.5419 82.6324 29.5107C83.0293 29.4794 83.6198 29.3857 83.9392 29.2997C84.2587 29.2138 86.1367 28.7529 88.1019 28.2763C93.8327 26.9013 93.9973 26.8466 95.0235 26.0966L95.3623 25.8544L94.8298 25.8857C94.5394 25.9091 93.6295 26.1044 92.8066 26.331C91.1996 26.7685 90.9576 26.7763 90.7737 26.3857C90.7253 26.2841 90.5994 25.2919 90.4833 24.1747C90.1638 20.9404 90.1541 20.5185 90.3284 19.7685C90.5607 18.7372 90.6091 18.3857 90.493 18.331C90.4446 18.3075 90.2413 18.456 90.038 18.6591C89.6701 19.0497 88.4794 19.9091 87.7534 20.2997C87.2209 20.5966 84.3458 22.9013 82.7776 24.2997C81.1609 25.7372 77.7437 28.2841 76.6208 28.8857L76.2529 29.081L74.5298 29.0107C73.5811 28.9638 72.7292 28.9091 72.642 28.87C72.4872 28.8232 72.4678 28.87 72.4678 29.3232V29.831L71.9644 30.1904C71.6934 30.3857 71.1609 30.6591 70.7834 30.7997C69.1861 31.4013 67.4436 32.12 66.8628 32.4247C65.8076 32.9794 61.9354 34.4872 59.0699 35.4716C58.5375 35.6513 57.7727 35.8544 57.3758 35.9091C55.5946 36.1825 55.1299 36.3466 54.3071 36.9716L54.007 37.1982L52.371 37.1357L50.735 37.0732L51.8966 36.3232C53.4359 35.331 55.188 34.2919 55.7011 34.0575C55.9722 33.9404 56.3013 33.6747 56.6111 33.3388C57.1725 32.706 57.6178 32.5107 58.9731 32.2685C59.6992 32.1435 59.8734 32.081 60.0864 31.8779C60.3574 31.62 60.522 31.5654 62.4 31.1669C63.6682 30.8935 65.0525 30.6904 65.2558 30.7529C65.4204 30.8075 65.7495 30.6747 66.127 30.3935C66.2916 30.2763 66.8918 29.9794 67.4823 29.7294C68.7021 29.2216 72.4968 27.3857 73.7553 26.706C74.6169 26.2372 75.2171 25.7216 75.7689 24.9638C76.2335 24.3154 76.2142 24.3154 74.7234 24.9013L73.5811 25.3466H72.371C71.0544 25.3544 70.4349 25.245 69.2926 24.8388C66.9886 24.0107 64.733 22.0497 63.1358 19.4794C62.5936 18.6044 59.2926 12.6513 58.2084 10.5888C56.582 7.49504 55.9915 6.10442 55.2364 3.65129C54.3458 0.729416 53.8521 -0.262772 53.4649 0.0575409ZM92.8744 50.8779C93.0583 51.0263 93.0099 51.2294 92.7776 51.2763C92.5065 51.3388 92.4968 51.3232 92.5646 51.0341C92.6324 50.7607 92.6904 50.7294 92.8744 50.8779ZM93.2035 51.6747C93.3294 51.8232 93.2906 51.8857 92.9905 51.9794C92.6033 52.0966 92.6227 52.1669 93.0777 52.2685C93.6004 52.3779 93.6682 52.62 93.2519 52.9091C93.0777 53.0263 92.8937 53.12 92.8357 53.1279C92.7195 53.1279 92.3613 51.7763 92.4388 51.6122C92.4872 51.5185 92.584 51.5029 92.8163 51.5419C92.9905 51.5654 93.1648 51.6279 93.2035 51.6747Z" fill="#FF3864"/>
</svg>
